<svg xmlns="http://www.w3.org/2000/svg" width="32" height="32" viewBox="0 0 32 32" fill="none">
  <rect width="32" height="32" rx="8" fill="url(#gradient)" />
  <path d="M10 8C8.89543 8 8 8.89543 8 10V22C8 23.1046 8.89543 24 10 24H22C23.1046 24 24 23.1046 24 22V10C24 8.89543 23.1046 8 22 8H10ZM11 12C11 11.4477 11.4477 11 12 11H20C20.5523 11 21 11.4477 21 12V20C21 20.5523 20.5523 21 20 21H12C11.4477 21 11 20.5523 11 20V12ZM14 14H18V16H14V14ZM14 17H18V19H14V17Z" fill="white"/>
  <defs>
    <linearGradient id="gradient" x1="0" y1="0" x2="32" y2="32" gradientUnits="userSpaceOnUse">
      <stop stopColor="#3B82F6"/>
      <stop offset="1" stopColor="#1D4ED8"/>
    </linearGradient>
  </defs>
</svg>